<?xml version="1.0" encoding="utf-8"?>
<!-- Generator: Adobe Illustrator 26.0.1, SVG Export Plug-In . SVG Version: 6.00 Build 0)  -->
<svg version="1.1" id="Layer_1" xmlns="http://www.w3.org/2000/svg" xmlns:xlink="http://www.w3.org/1999/xlink" x="0px" y="0px"
	 viewBox="0 0 808.4 712.5" style="enable-background:new 0 0 808.4 712.5;" xml:space="preserve">
<style type="text/css">
	.st0{fill:#F2F2F2;}
	.st1{fill:#CCCCCC;}
	.st2{fill:#FFFFFF;}
	.st3{fill:#3F3D56;}
	.st4{fill:#CACACA;}
	.st5{fill:#E4E4E4;}
	.st6{fill:#009649;}
	.st7{opacity:0.2;fill:#231F20;enable-background:new    ;}
	.st8{fill:#05502C;}
	.st9{fill:#FFB6B6;}
	.st10{fill:#0D42FF;}
	.st11{fill:#2F2E41;}
</style>
<path class="st0" d="M519.2,643.4l-2-27.6c-13-6.5-27.4-9.7-41.9-9.4c20.4,15.8,18.8,47.4,32.9,69c9,13.6,23.8,22.3,40,23.7l17,9.8
	c3.9-26-3.7-52.5-20.9-72.3c-4.8-5.5-10.3-10.3-16.4-14.4C524.2,632.8,519.2,643.4,519.2,643.4z"/>
<path id="a8455189-ed55-4a18-ae95-69e4c9a5ea4d-52" class="st1" d="M417.9,712.5h389.3c0.7,0,1.2-0.6,1.2-1.2s-0.6-1.2-1.2-1.2
	H417.9c-0.7,0-1.2,0.6-1.2,1.2S417.2,712.5,417.9,712.5L417.9,712.5z"/>
<path class="st2" d="M170,414.8v0.5h0.4C170.3,415.2,170.2,415,170,414.8z M172.9,188.5c-26,33.8-40.1,75.2-40,117.9
	c0,6.5,0.3,12.9,1,19.2c0.1,1.1,0.2,2.2,0.4,3.2c3.6,31.4,14.9,61.4,32.8,87.4c0.7,1,1.4,2,2.1,3c7.7,10.8,16.5,20.8,26.3,29.9
	c78.7,72.6,201.3,67.7,273.9-10.9c1.1-1.2,2.2-2.4,3.2-3.6c61.3-69.4,64.9-172.6,8.5-246.1c-0.8-1.1-1.7-2.2-2.5-3.2
	c-1.9-2.4-3.9-4.8-6-7.1c-1.1-1.2-2.1-2.4-3.2-3.6c-36.7-39.8-88.3-62.4-142.4-62.3c-1.9,0-3.7,0-5.5,0.1c-1.2,0-2.5,0.1-3.7,0.1
	c-55.7,2.6-107.6,29.2-142.3,72.8C174.6,186.3,173.7,187.4,172.9,188.5L172.9,188.5z M170.4,415.3c-0.1-0.2-0.3-0.3-0.4-0.5v0.5
	H170.4z"/>
<path class="st3" d="M168.7,412.8l0.5-1.1l41.2-82.9v0l1.6-3.2v0l68-137.1v0l1.6-3.2l0,0l34.5-69.4l1.6-3.3c1.2-0.1,2.5-0.1,3.7-0.1
	l-1.6,3.3l-34.5,69.6v0l-1.6,3.2v0l-69.8,140.6l0,0l-41.2,83l-1.6,3.2l-0.3,0.5l-1.6,3.3c-0.7-1-1.4-2-2.1-3L168.7,412.8z"/>
<path class="st3" d="M213.2,325.5v3.2h-79c-0.1-1.1-0.3-2.2-0.4-3.2H213.2z"/>
<path class="st3" d="M335.9,350.8v-3.2h79c0.1,1.1,0.3,2.2,0.4,3.2H335.9z"/>
<path class="st3" d="M401.9,339.5h3.2v79c-1.1,0.1-2.2,0.3-3.2,0.4V339.5z"/>
<path class="st3" d="M481.1,188.5c-0.8-1.1-1.7-2.2-2.5-3.2h-6v-7.1c-1.1-1.2-2.1-2.4-3.2-3.6v10.7H175.4c-0.9,1.1-1.7,2.2-2.5,3.2
	h296.5v249.6c1.1-1.2,2.2-2.4,3.2-3.6V188.5H481.1z"/>
<rect x="170" y="412.1" class="st3" width="301" height="3.2"/>
<path class="st1" d="M170,414.8v0.5h0.4C170.3,415.2,170.2,415,170,414.8z M172.9,188.5c-26,33.8-40.1,75.2-40,117.9
	c0,6.5,0.3,12.9,1,19.2c0.1,1.1,0.2,2.2,0.4,3.2c3.6,31.4,14.9,61.4,32.8,87.4c0.7,1,1.4,2,2.1,3c7.7,10.8,16.5,20.8,26.3,29.9
	c78.7,72.6,201.3,67.7,273.9-10.9c1.1-1.2,2.2-2.4,3.2-3.6c61.3-69.4,64.9-172.6,8.5-246.1c-0.8-1.1-1.7-2.2-2.5-3.2
	c-1.9-2.4-3.9-4.8-6-7.1c-1.1-1.2-2.1-2.4-3.2-3.6c-36.7-39.8-88.3-62.4-142.4-62.3c-1.9,0-3.7,0-5.5,0.1c-1.2,0-2.5,0.1-3.7,0.1
	c-55.7,2.6-107.6,29.2-142.3,72.8C174.6,186.3,173.7,187.4,172.9,188.5L172.9,188.5z M137.5,328.8c-0.1-1.1-0.3-2.2-0.4-3.2
	c-4.9-49.1,9.4-98.3,39.9-137.1c0.9-1.1,1.7-2.2,2.6-3.2c33.8-41.2,83.3-66.4,136.5-69.5c1.2-0.1,2.5-0.1,3.7-0.2
	c2.4-0.1,4.8-0.1,7.2-0.1c54.4,0,106.2,23.2,142.4,63.9c1.1,1.2,2.2,2.5,3.2,3.7c0.6,0.7,1.2,1.4,1.8,2.2c0.9,1.1,1.7,2.2,2.6,3.2
	c56.1,71.2,54.2,172-4.4,241.1c-1,1.3-2.1,2.5-3.2,3.7c-9.8,11.1-21,20.9-33.1,29.4c-86.3,60.4-205.1,39.4-265.5-46.9
	c-0.1-0.2-0.3-0.4-0.4-0.5c-0.1-0.2-0.3-0.3-0.4-0.5c-0.5-0.7-0.9-1.3-1.4-2C151.7,387.7,141,358.9,137.5,328.8L137.5,328.8z
	 M170.4,415.3c-0.1-0.2-0.3-0.3-0.4-0.5v0.5H170.4z"/>
<path class="st4" d="M550.5,514.8H356.9c-4.9,0-8.9-4-8.9-8.9v-94.4c0-4.9,4-8.9,8.9-8.9h193.7c4.9,0,8.9,4,8.9,8.9v94.4
	C559.5,510.8,555.5,514.8,550.5,514.8z"/>
<path class="st5" d="M465.3,507.2c-42.4,0-86.6-0.4-103.1-0.7c-4.5-0.1-8.1-3.8-8.1-8.3v-86.7c0-1.6,1.3-2.9,2.9-2.9h193.6
	c1.6,0,2.9,1.3,2.9,2.9v58.8c-0.1,20-16.1,36.2-36.1,36.6C502,507.2,483.8,507.2,465.3,507.2z"/>
<path class="st4" d="M530.6,462.8H373c-2.1,0-4-1.3-4.7-3.3l-17.8-50c-0.9-2.6,0.4-5.4,3-6.3c0.5-0.2,1.1-0.3,1.7-0.3l197-0.3h0
	c2.7,0,5,2.2,5,5c0,0.7-0.1,1.3-0.4,2l-0.3-0.1l0.3,0.1l-21.6,50.3C534.3,461.6,532.5,462.8,530.6,462.8z"/>
<path class="st4" d="M418.7,497.5h-54.3c-2.8,0-5-2.3-5-5.1c0-2.8,2.3-5,5-5h54.3c2.8,0,5,2.3,5,5.1
	C423.7,495.2,421.4,497.5,418.7,497.5z"/>
<circle class="st3" cx="453.4" cy="462.8" r="12.3"/>
<path class="st6" d="M62.4,25.5c63.1-44.5,150.3-29.3,194.8,33.8c44.5,63.1,89.1,228.7,57.6,324.6
	C220.8,284.7,76.5,274.4,28.6,220.3C-22.7,162.6-0.8,70,62.4,25.5z"/>
<circle id="faf5c3b1-f7bb-4793-8f76-a694569c182e" class="st2" cx="144.8" cy="122.9" r="45.6"/>
<circle id="e618366e-6f5c-4381-83a5-490aecbf791d" class="st6" cx="353.3" cy="403.7" r="29.9"/>
<path class="st7" d="M96,112.4c-12.7,21.7-5.4,49.7,16.4,62.4c21.7,12.7,49.7,5.4,62.4-16.4c-18.9,16.6-47.7,14.7-64.3-4.2
	c-12.9-14.8-15-36.1-5.1-53.1C101.6,104.3,98.5,108.1,96,112.4z"/>
<path class="st8" d="M28.5,220.5c48,54.1,192.3,64.4,286.2,163.6c2.9-9.1,5.2-18.4,6.8-27.8C227.5,266.2,91.3,254.8,44.9,202.5
	C3.5,155.8,9.9,86.2,47.3,37.8C-4,85.4-18.5,167.6,28.5,220.5z"/>
<path class="st9" d="M624.6,411.5l-19.4-5.9c-8.4,10.2-15.4,39.6-15.4,39.6l-26.5,43.1c-4.5,2.1-6.4,7.4-4.2,11.9
	c2.1,4.5,7.4,6.4,11.9,4.2c2.9-1.4,4.8-4.2,5.1-7.4l40.1-48.7L624.6,411.5z"/>
<path class="st10" d="M624.3,416.2l3.6-29.3l-8-13.4c-3.2-5.4-9.2-8.4-15.5-7.9l0,0c-8.6,0.8-15.1,8.1-14.9,16.7
	c0.3,12.6,2.3,28.5,10,32.9l0.1,0L624.3,416.2z"/>
<polygon class="st9" points="679,681.1 667.3,686.7 640.2,644.5 657.3,636.3 "/>
<path class="st11" d="M685.2,693l-35.7,17.2l-0.2-0.5c-3.7-7.7-0.5-16.9,7.2-20.6l0,0l4.1-8.1l14.6-0.9l3.1-1.5L685.2,693z"/>
<polygon class="st9" points="592.5,696.8 579.6,696.8 573.5,647 592.5,647 "/>
<path class="st11" d="M593,710.2l-39.6,0v-0.5c0-8.5,6.9-15.4,15.4-15.4h0l7.2-5.5l13.5,5.5l3.5,0L593,710.2z"/>
<path class="st11" d="M579.7,466.1L565,568l4,13.4l-5.3,9.5l7.7,71.5l-3.1,6.9l8.8,5.4H595l0.9-75.5l4.4-11.1V582l9-46l2.1,71.7
	l2.9,5.5c10.7,24.3,25.1,32.2,35.3,50.3l17.9-9.7l-0.4-7.2c3.6-1.8-5.4-7.1-6.3-11.1l-1.6-7l-10.4-21.6l-0.4-7.6l2.9-51.8l-1.3-69.7
	l-23.5-17.9L579.7,466.1z"/>
<circle class="st9" cx="603" cy="319.3" r="23.2"/>
<path class="st6" d="M568.6,510.1l-0.3-0.1l4.5-14.6c-1.2-3.8-0.4-8,2.1-11.1c-0.7-1.3-3.7-7.2,1.2-12.3c-0.3-1.5-1.8-10.2,3.4-14.4
	c0,0,9.9-75.4,15.5-95.3c0.2-1.5-1.1-13.3,6.4-13.8c4-0.2,9.9-0.6,18.8-1.2c1.2-0.1,1.8,1.9,2.8,5c0.7,2.1-2.9,5.1-2,5l0.1,0l0.1,0
	c17.1,4.6,28.7,20.6,27.7,38.3l-2.6,45c0.4,1.8,8.8,53.2,6.6,58.7c-1.3,3.1,0.9,5.1,2.4,6.5c0.8,0.7,1.4,1.3,1.3,1.8
	c-0.1,0.3-0.3,0.6-0.6,0.7c-1.4,0.7-0.6,5.5,0.2,8.4l0.1,0.3l-0.3,0.1c-0.3,0.2-25.5-11.4-56.2-11.4
	C588.2,505.8,581.6,514.6,568.6,510.1z"/>
<path class="st11" d="M621.4,333.6c-0.5-0.3-0.8-0.7-1-1.2l-0.3-1.3l1,1.1c1.7-1.4,2-4,0.5-5.7c-0.5-0.5-1-1-1.7-1.2
	c-0.4-0.1-0.9-0.3-1.4-0.3c-0.5-0.1-1-0.2-1.4-0.3c-2.2-1-3.8-3.1-3.9-5.5c-0.2-2.1,0.1-4.2,0.7-6.2c-10.3,1.6-20.7,1.3-30.8-0.9
	c-1.6-0.3-3.1-0.9-4.4-1.7c-2.5-1.5-4.6-3.6-6.1-6.1c-0.4-0.7-0.3-1.6,0.2-2.2c0.4-0.4,0.9-0.6,1.4-0.6l-0.4-1
	c-0.4-1,0.1-2.1,1.1-2.4c0.3-0.1,0.7-0.1,1-0.1l1.3,0.2l-0.1-0.9c-0.2-1,0.6-2,1.6-2.1c0.3,0,0.6,0,0.9,0.1c1.1,0.4,2.3-0.1,2.7-1.2
	c0-0.1,0.1-0.2,0.1-0.3l0.5-2.2l0-0.1c2.2-3.7,6.5-6.4,11.7-7.4c4.7-0.9,9.4-0.4,14,0c2,0,3.9,0.5,5.6,1.4c1.6,0.9,2.5,2.7,2.4,4.5
	c4.5-1.4,9.4,1.4,11.8,4.9c2.9,4.2,3.3,9.4,3.4,13.5c0.2,9.7-1.8,17.5-5.9,23.5c-0.6,1-1.5,1.8-2.5,2.3c-0.3,0.1-0.6,0.1-0.8,0.1
	C622.2,333.9,621.8,333.8,621.4,333.6z"/>
<path class="st9" d="M622.2,425.1l-17.1-10.9c-10.9,7.5-25.5,34-25.5,34l-37.1,34.3c-4.9,0.8-8.1,5.5-7.3,10.3
	c0.8,4.9,5.5,8.1,10.3,7.3c3.2-0.5,5.8-2.7,6.9-5.7l51.8-36.1L622.2,425.1z"/>
<path class="st6" d="M620.6,429.5l11.4-27.3l-4.1-15.1c-1.7-6-6.6-10.6-12.8-11.8l0,0c-8.5-1.6-16.7,3.7-18.9,12.1
	c-3.1,12.2-5.5,28.1,0.8,34.4l0.1,0.1L620.6,429.5z"/>
</svg>
